<?xml version="1.0" encoding="UTF-8"?>
<!DOCTYPE svg PUBLIC "-//W3C//DTD SVG 1.1//EN" "http://www.w3.org/Graphics/SVG/1.1/DTD/svg11.dtd">
<svg xmlns="http://www.w3.org/2000/svg" xml:space="preserve" width="428px" height="428px" version="1.1" shape-rendering="geometricPrecision" text-rendering="geometricPrecision" image-rendering="optimizeQuality" fill-rule="evenodd" clip-rule="evenodd" viewBox="0 0 428 428" xmlns:xlink="http://www.w3.org/1999/xlink">
	<g>
		<g>
			<path fill="#FECC00" fill-rule="nonzero" d="M214 428c118,0 214,-96 214,-214 0,-118 -96,-214 -214,-214 -118,0 -214,96 -214,214 0,118 96,214 214,214z"/>
			<path fill="#2B2A29" fill-rule="nonzero" d="M215 43c-95,0 -171,76 -171,171 0,94 76,171 171,171 94,0 171,-77 171,-171 0,-95 -77,-171 -171,-171zm0 42l0 0c71,0 128,58 128,129 0,71 -57,128 -128,128 -71,0 -129,-57 -129,-128 0,-71 58,-129 129,-129z"/>
			<path fill="#2B2A29" fill-rule="nonzero" d="M157 177l-9 0c-4,0 -7,-1 -10,-3 -2,-3 -3,-6 -3,-10 0,-3 1,-6 3,-9 3,-3 6,-4 10,-4l23 0c10,0 14,5 14,14l0 97c0,5 -1,9 -3,11 -3,3 -6,4 -11,4 -4,0 -8,-1 -10,-4 -3,-2 -4,-6 -4,-11l0 -85 0 0z"/>
			<path fill="#2B2A29" fill-rule="nonzero" d="M241 214c10,-12 14,-21 14,-27 0,-4 0,-6 -2,-8 -3,-3 -15,-8 -23,10 -1,4 -2,7 -4,9 -1,2 -4,4 -8,4l-1 0c-4,0 -6,-1 -9,-3 -2,-3 -4,-6 -4,-10 0,-11 4,-21 13,-29 8,-8 18,-11 29,-11 11,0 20,3 28,10 8,7 12,16 12,27 0,7 -1,13 -4,19 -3,5 -14,20 -21,27 -7,8 -12,14 -15,18l30 0c4,0 7,1 10,4 2,2 3,5 3,9 0,4 -1,7 -3,9 -3,3 -6,4 -10,4l-57 0c-11,0 -17,-3 -17,-12 0,-6 3,-10 7,-14 16,-18 27,-30 32,-36l0 0z"/>
		</g>
	</g>
</svg>
