<?xml version="1.0" encoding="UTF-8"?>
<!DOCTYPE svg PUBLIC "-//W3C//DTD SVG 1.1//EN" "http://www.w3.org/Graphics/SVG/1.1/DTD/svg11.dtd">
<svg xmlns="http://www.w3.org/2000/svg" xml:space="preserve" width="428px" height="428px" version="1.1" shape-rendering="geometricPrecision" text-rendering="geometricPrecision" image-rendering="optimizeQuality" fill-rule="evenodd" clip-rule="evenodd" viewBox="0 0 428 428" xmlns:xlink="http://www.w3.org/1999/xlink">
	<g>
		<g>
			<path fill="#FECC00" fill-rule="nonzero" d="M214 428c118,0 214,-96 214,-214 0,-118 -96,-214 -214,-214 -118,0 -214,96 -214,214 0,118 96,214 214,214z"/>
			<path fill="#2B2A29" fill-rule="nonzero" d="M171 151l-24 0c-8,0 -13,7 -13,13 0,7 5,14 13,14l9 0 0 84c0,10 6,15 15,15 8,0 14,-5 14,-15l0 -96c0,-12 -8,-15 -14,-15l0 0z"/>
			<path fill="#2B2A29" fill-rule="nonzero" d="M244 252c-9,0 -16,-8 -16,-16 0,-9 7,-16 16,-16 9,0 16,7 16,16 0,8 -7,16 -16,16zm11 -55l0 0c-6,0 -9,0 -12,1l0 0c13,-19 27,-26 27,-36 0,-5 -5,-13 -14,-13 -7,0 -11,3 -33,29 -12,15 -24,36 -24,58 0,26 17,43 45,43 27,0 46,-19 46,-43 0,-20 -15,-39 -35,-39l0 0z"/>
			<path fill="#2B2A29" fill-rule="nonzero" d="M215 43c-95,0 -172,76 -172,171 0,94 77,171 172,171 94,0 171,-77 171,-171 0,-95 -77,-171 -171,-171zm0 43l0 0c70,0 128,57 128,128 0,71 -58,128 -128,128 -71,0 -129,-57 -129,-128 0,-71 58,-128 129,-128z"/>
		</g>
	</g>
</svg>
